<svg width="76" height="76" viewBox="0 0 76 76" fill="none" xmlns="http://www.w3.org/2000/svg">
<rect width="76" height="76" rx="38" fill="#FF9370"/>
<path d="M49.0145 24.5H26.9855C25.6128 24.5 24.5 25.6128 24.5 26.9855V49.0145C24.5 50.3872 25.6128 51.5 26.9855 51.5H49.0145C50.3872 51.5 51.5 50.3872 51.5 49.0145V26.9855C51.5 25.6128 50.3872 24.5 49.0145 24.5Z" stroke="white" stroke-width="1.5" stroke-linecap="round" stroke-linejoin="round"/>
<path d="M38 24.5V51.5" stroke="white" stroke-width="1.5" stroke-linecap="round" stroke-linejoin="round"/>
<path d="M31.25 29.75C31.25 30.5784 30.5784 31.25 29.75 31.25C30.5784 31.25 31.25 31.9216 31.25 32.75C31.25 31.9216 31.9216 31.25 32.75 31.25C31.9216 31.25 31.25 30.5784 31.25 29.75ZM44.75 42.5C44.75 43.3284 44.0784 44 43.25 44C44.0784 44 44.75 44.6716 44.75 45.5C44.75 44.6716 45.4216 44 46.25 44C45.4216 44 44.75 43.3284 44.75 42.5Z" stroke="white" stroke-width="1.5" stroke-linecap="round" stroke-linejoin="round"/>
</svg>
