<svg width="76" height="76" viewBox="0 0 76 76" fill="none" xmlns="http://www.w3.org/2000/svg">
<rect width="76" height="76" rx="38" fill="#FF9370"/>
<path d="M38.6285 38.6L41.429 38.039V38.039C41.8339 37.9594 42.2065 37.7621 42.5 37.472L50.678 29.3V29.3C51.7743 28.203 51.7743 26.425 50.678 25.328V25.328C49.5809 24.2316 47.803 24.2316 46.706 25.328L38.528 33.5V33.5C38.2356 33.7928 38.0363 34.1654 37.955 34.571L37.4 37.3715V37.3715C37.2911 37.9411 37.6645 38.4911 38.2341 38.6C38.3644 38.6249 38.4982 38.6249 38.6285 38.6V38.6Z" stroke="white" stroke-width="1.5" stroke-linecap="round" stroke-linejoin="round"/>
<path d="M34.0476 41.636C38.7336 46.322 45.1476 47.51 48.3651 44.288C51.0771 41.576 50.6556 36.608 47.6631 32.309" stroke="white" stroke-width="1.5" stroke-linecap="round" stroke-linejoin="round"/>
<path d="M43.76 28.268C38.1245 23.933 31.0775 23.3915 27.152 27.317C22.7585 31.7105 23.9465 40.0205 29.804 45.878H29.804C32.3688 48.485 35.5391 50.4164 39.032 51.5" stroke="white" stroke-width="1.5" stroke-linecap="round" stroke-linejoin="round"/>
</svg>
