<svg width="76" height="76" viewBox="0 0 76 76" fill="none" xmlns="http://www.w3.org/2000/svg">
<rect width="76" height="76" rx="38" fill="#FF9370"/>
<g clip-path="url(#clip0_92_1862)">
<path d="M24.5 49.5966V51.5001" stroke="white" stroke-width="1.5" stroke-linecap="round" stroke-linejoin="round"/>
<path d="M39.5 40.25V38C39.5 36.8065 39.0259 35.6619 38.182 34.818C37.3381 33.9741 36.1935 33.5 35 33.5H30.5C29.3065 33.5 28.1619 33.9741 27.318 34.818C26.4741 35.6619 26 36.8065 26 38V40.25" stroke="white" stroke-width="1.5" stroke-linecap="round" stroke-linejoin="round"/>
<path d="M41 49.5935V51.5" stroke="white" stroke-width="1.5" stroke-linecap="round" stroke-linejoin="round"/>
<path d="M26.75 50H39.5C40.2956 50 41.0587 49.6839 41.6213 49.1213C42.1839 48.5587 42.5 47.7956 42.5 47V42.5C42.5 41.9033 42.2629 41.331 41.841 40.909C41.419 40.4871 40.8467 40.25 40.25 40.25H39.5C38.9033 40.25 38.331 40.4871 37.909 40.909C37.4871 41.331 37.25 41.9033 37.25 42.5V45.5H28.25V42.5C28.25 41.9033 28.0129 41.331 27.591 40.909C27.169 40.4871 26.5967 40.25 26 40.25H25.25C24.6533 40.25 24.081 40.4871 23.659 40.909C23.2371 41.331 23 41.9033 23 42.5V47C23 47.7956 23.3161 48.5587 23.8787 49.1213C24.4413 49.6839 25.2044 50 26 50H26.75Z" stroke="white" stroke-width="1.5" stroke-linecap="round" stroke-linejoin="round"/>
<path d="M48.5 50V33.5" stroke="white" stroke-width="1.5" stroke-linecap="round" stroke-linejoin="round"/>
<path d="M50.8563 23H46.1438C45.8179 23 45.5008 23.1062 45.2405 23.3025C44.9803 23.4988 44.7911 23.7745 44.7016 24.0879L42.5587 31.5879C42.4949 31.8112 42.4838 32.0462 42.5263 32.2744C42.5688 32.5027 42.6636 32.7179 42.8035 32.9033C42.9433 33.0887 43.1242 33.239 43.332 33.3426C43.5398 33.4461 43.7688 33.5 44.001 33.5H52.9992C53.2313 33.5 53.4603 33.4461 53.6681 33.3426C53.8759 33.239 54.0569 33.0887 54.1967 32.9033C54.3365 32.7179 54.4314 32.5027 54.4738 32.2744C54.5163 32.0462 54.5052 31.8112 54.4414 31.5879L52.2986 24.0879C52.209 23.7745 52.0198 23.4988 51.7596 23.3025C51.4994 23.1062 51.1823 23 50.8563 23V23Z" stroke="white" stroke-width="1.5" stroke-linecap="round" stroke-linejoin="round"/>
</g>
<defs>
<clipPath id="clip0_92_1862">
<rect width="36" height="36" fill="white" transform="translate(20 20)"/>
</clipPath>
</defs>
</svg>
