<svg width="76" height="76" viewBox="0 0 76 76" fill="none" xmlns="http://www.w3.org/2000/svg">
<rect width="76" height="76" rx="38" fill="#FF9370"/>
<path d="M31.7014 35.69C31.9399 34.865 32.6689 34.25 33.5704 34.25C34.6624 34.25 35.5489 35.135 35.5489 36.2285C35.5489 37.2065 34.7554 38 33.7774 38C34.7554 38 35.5489 38.7935 35.5489 39.7715C35.5489 40.8635 34.6639 41.75 33.5704 41.75C32.6689 41.75 31.9399 41.135 31.7014 40.31M41.4124 41.75H39.2989V34.25H41.4124C43.0069 34.25 44.2999 35.543 44.2999 37.1375V38.864C44.2984 40.457 43.0069 41.75 41.4124 41.75Z" stroke="white" stroke-width="1.5" stroke-linecap="round" stroke-linejoin="round"/>
<path d="M24.5 41.5715V34.4285C24.5 32.0255 25.778 29.804 27.854 28.595L34.604 24.6665C36.7025 23.4455 39.296 23.4455 41.3945 24.6665L48.1445 28.595C50.222 29.804 51.5 32.0255 51.5 34.4285V41.5715C51.5 43.9745 50.222 46.196 48.146 47.405L41.396 51.3335C39.2975 52.5545 36.704 52.5545 34.6055 51.3335L27.8555 47.405C25.778 46.196 24.5 43.9745 24.5 41.5715V41.5715Z" stroke="white" stroke-width="1.5" stroke-linecap="round" stroke-linejoin="round"/>
</svg>
