<svg width="115" height="83" viewBox="0 0 115 83" fill="none" xmlns="http://www.w3.org/2000/svg">
<path d="M10 33.0198C4.49 33.0198 0 28.5298 0 23.0198C0 17.5098 4.49 13.0198 10 13.0198C15.51 13.0198 20 17.5098 20 23.0198C20 28.5298 15.51 33.0198 10 33.0198ZM10 18.0198C7.24 18.0198 5 20.2598 5 23.0198C5 25.7798 7.24 28.0198 10 28.0198C12.76 28.0198 15 25.7798 15 23.0198C15 20.2598 12.76 18.0198 10 18.0198Z" fill="#171824"/>
<path d="M88.8599 56.3899C83.3499 56.3899 78.8599 51.8999 78.8599 46.3899C78.8599 40.8799 83.3499 36.3899 88.8599 36.3899C94.3699 36.3899 98.8599 40.8799 98.8599 46.3899C98.8599 51.8999 94.3699 56.3899 88.8599 56.3899ZM88.8599 41.3899C86.0999 41.3899 83.8599 43.6299 83.8599 46.3899C83.8599 49.1499 86.0999 51.3899 88.8599 51.3899C91.6199 51.3899 93.8599 49.1499 93.8599 46.3899C93.8599 43.6299 91.6199 41.3899 88.8599 41.3899Z" fill="#171824"/>
<path d="M49.8201 13.5398H45.1001V32.4998H49.8201V13.5398Z" fill="#171824"/>
<path d="M49.8201 7.23999H45.1001V11.96H49.8201V7.23999Z" fill="#171824"/>
<path d="M68.0498 20.2598C67.5098 19.2498 66.8198 18.4998 65.9798 17.9898C65.1398 17.4798 64.1498 17.2298 62.9998 17.2298C61.4798 17.2298 60.1998 17.7798 59.1798 18.8798C58.1598 19.9798 57.6398 21.3598 57.6398 23.0298C57.6398 24.6998 58.1598 26.0398 59.2098 27.1298C60.2598 28.2198 61.5698 28.7598 63.1598 28.7598C64.3798 28.7598 65.2998 28.4298 66.2198 28.0298C67.1398 27.6298 67.6598 26.9998 67.9398 26.4598L72.0098 28.8198C71.6998 29.3798 70.9298 30.4098 69.4698 31.4198C67.6298 32.6898 65.6198 33.2298 63.1898 33.2298C61.7598 33.2298 60.4398 32.9798 59.2198 32.4698C57.9998 31.9598 56.8998 31.2098 55.9198 30.2098C55.0098 29.2698 54.2898 28.1698 53.7798 26.9098C53.2698 25.6498 53.0098 24.3698 53.0098 23.0698C53.0098 21.7698 53.2398 20.4398 53.7098 19.2598C54.1798 18.0798 54.8698 17.0098 55.7798 16.0598C56.7898 14.9898 57.9198 14.1798 59.1898 13.6298C60.4598 13.0798 61.8098 12.7998 63.2698 12.7998C65.6398 12.7998 67.6898 13.4698 69.4198 14.8198C71.1498 16.1698 71.6098 17.1498 72.0098 18.0298L68.0498 20.2498V20.2598Z" fill="#171824"/>
<path d="M80.0101 24.4798C80.1601 25.8698 80.7201 26.9698 81.6701 27.7798C82.6201 28.5898 83.8601 28.9798 85.3701 28.9798C86.3801 28.9798 87.2801 28.7698 88.0901 28.3498C88.9001 27.9298 89.5301 27.3398 90.0001 26.5698L94.1601 28.3798C93.6701 29.1798 92.8801 30.4498 91.2101 31.6598C89.5401 32.8698 87.6401 33.2298 85.5001 33.2298C84.0601 33.2298 82.7301 32.9798 81.5201 32.4698C80.3101 31.9598 79.2201 31.2098 78.2601 30.2098C77.3501 29.2598 76.6401 28.1598 76.1301 26.9098C75.6201 25.6598 75.3701 24.3798 75.3701 23.0698C75.3701 21.7598 75.6001 20.4498 76.0601 19.2598C76.5201 18.0698 77.2101 16.9998 78.1101 16.0498C79.0901 15.0098 80.2101 14.1998 81.4501 13.6398C82.6901 13.0798 83.9801 12.7998 85.3001 12.7998C86.9801 12.7998 88.5401 13.1798 89.9901 13.9398C91.4401 14.6998 92.6801 15.7698 93.7001 17.1598C94.3201 17.9898 94.7801 18.9198 95.0801 19.9498C95.3801 20.9798 95.5301 22.1598 95.5301 23.4998C95.5301 23.6098 95.5301 23.7698 95.5101 23.9798C95.4901 24.1898 95.4901 24.3598 95.4901 24.4598H80.0001L80.0101 24.4798ZM90.6801 20.9098C90.2901 19.6198 89.6501 18.6398 88.7401 17.9698C87.8301 17.2998 86.6901 16.9598 85.3001 16.9598C84.1001 16.9598 83.0301 17.3198 82.0801 18.0498C81.1301 18.7798 80.4901 19.7298 80.1601 20.9198H90.6701L90.6801 20.9098Z" fill="#171824"/>
<path d="M49.74 54.8998L49.69 82.9898H44.96V37.0598H49.7V38.3498C50.61 37.6398 51.23 37.4298 52.22 37.0798C53.21 36.7298 54.26 36.5598 55.4 36.5598C56.62 36.5598 57.77 36.7498 58.85 37.1298C59.93 37.5098 60.89 38.0798 61.75 38.8298C62.91 39.8398 63.8 41.0298 64.43 42.3998C65.06 43.7698 65.37 45.2298 65.37 46.7798C65.37 48.2198 65.09 49.5998 64.52 50.9098C63.95 52.2198 63.15 53.3498 62.1 54.2998C61.21 55.1398 60.19 55.7898 59.05 56.2298C57.91 56.6698 56.7 56.8998 55.44 56.8998C54.18 56.8998 53.11 56.7298 52.13 56.3998C51.15 56.0698 50.59 55.5998 49.75 54.8898L49.74 54.8998ZM49.56 46.6398C49.56 48.2898 50.07 49.6698 51.08 50.7798C52.09 51.8898 53.35 52.4398 54.84 52.4398C56.33 52.4398 57.57 51.8798 58.61 50.7498C59.65 49.6198 60.17 48.2798 60.17 46.7098C60.17 45.1398 59.65 43.7298 58.6 42.6498C57.55 41.5698 56.23 41.0298 54.64 41.0298C53.24 41.0298 52.04 41.5698 51.05 42.6598C50.06 43.7498 49.56 45.0698 49.56 46.6398Z" fill="#171824"/>
<path d="M67.1499 37.1199H71.8899V55.8599H67.1499V37.1199ZM76.7699 41.2199C76.3499 41.0599 75.8599 40.9799 75.3099 40.9799C74.2299 40.9799 73.3899 41.2999 72.7899 41.9499C72.1899 42.5899 71.8999 43.4899 71.8999 44.6299V38.9199C72.3399 37.9899 72.5699 37.7499 73.3899 37.1799C74.2699 36.5699 75.3399 36.4299 76.3899 36.4699C76.9699 36.4899 77.2499 36.5499 77.8699 36.8099" fill="#171824"/>
<path d="M114.55 39.53L111.5 42.58C110.26 41.35 109.13 40.74 108.12 40.74C107.57 40.74 107.13 40.86 106.82 41.09C106.51 41.33 106.35 41.62 106.35 41.97C106.35 42.23 106.45 42.48 106.65 42.7C106.85 42.92 107.34 43.23 108.12 43.61L109.93 44.51C111.83 45.45 113.14 46.41 113.85 47.38C114.56 48.35 114.92 49.5 114.92 50.81C114.92 52.56 114.28 54.01 113 55.18C111.72 56.35 110 56.93 107.84 56.93C104.97 56.93 102.68 55.81 100.97 53.57L104.01 50.26C104.59 50.93 105.27 51.48 106.04 51.89C106.82 52.31 107.51 52.51 108.11 52.51C108.76 52.51 109.28 52.35 109.68 52.04C110.08 51.73 110.28 51.37 110.28 50.96C110.28 50.2 109.56 49.46 108.13 48.74L106.47 47.91C103.29 46.31 101.7 44.3 101.7 41.89C101.7 40.34 102.3 39.01 103.5 37.91C104.7 36.81 106.23 36.26 108.1 36.26C109.38 36.26 110.58 36.54 111.7 37.1C112.83 37.66 113.78 38.46 114.56 39.51L114.55 39.53Z" fill="#171824"/>
<path d="M32.0098 7.46989L42.1498 7.37989V11.5299H32.0098V7.46989ZM34.1598 5.37989C34.1198 5.02989 33.8998 2.85989 35.3998 1.34989C36.5898 0.149892 38.1898 0.0698916 39.2198 -0.00010836C40.4798 -0.0701084 41.6098 0.229892 42.1498 0.659892V4.04989C42.1498 4.04989 40.7298 3.47989 39.7998 3.77989C39.3098 3.92989 39.1698 4.07989 39.0598 4.25989C38.9398 4.45989 38.8998 4.87989 38.8998 5.32989V41.8399H34.1698V5.37989H34.1598Z" fill="#171824"/>
<path d="M21.3599 7.46989L31.4999 7.37989V11.5299H21.3599V7.46989ZM23.5099 5.37989C23.4699 5.02989 23.2499 2.85989 24.7499 1.34989C25.9399 0.149892 27.5299 0.0698916 28.5599 -0.00010836C29.8199 -0.0701084 30.9499 0.229892 31.4899 0.659892V4.04989C31.4899 4.04989 30.0699 3.47989 29.1399 3.77989C28.6499 3.92989 28.5099 4.07989 28.3999 4.25989C28.2799 4.45989 28.2399 4.87989 28.2399 5.32989V41.8399H23.5099V5.37989Z" fill="#171824"/>
</svg>
