<svg width="76" height="76" viewBox="0 0 76 76" fill="none" xmlns="http://www.w3.org/2000/svg">
<rect width="76" height="76" rx="38" fill="#FF9370"/>
<path d="M29 35L25.7426 31.7426C24.947 30.947 24.5 29.8679 24.5 28.7426C24.5 27.6174 24.947 26.5383 25.7426 25.7426V25.7426C26.1366 25.3487 26.6043 25.0362 27.1191 24.823C27.6338 24.6097 28.1855 24.5 28.7426 24.5C29.2998 24.5 29.8515 24.6097 30.3662 24.823C30.881 25.0362 31.3487 25.3487 31.7426 25.7426L35 29" stroke="white" stroke-width="1.5" stroke-linecap="round" stroke-linejoin="round"/>
<path d="M27.5 33.5L33.5 27.5" stroke="white" stroke-width="1.5" stroke-linecap="round" stroke-linejoin="round"/>
<path d="M47 41L49.5634 43.5634C49.9822 43.9822 50.2677 44.5156 50.3838 45.0964L51.485 50.6025C51.5092 50.7236 51.5032 50.8488 51.4674 50.9669C51.4316 51.0851 51.3672 51.1926 51.2799 51.2799C51.1926 51.3672 51.0851 51.4316 50.9669 51.4674C50.8488 51.5032 50.7236 51.5093 50.6025 51.485L45.0963 50.3838C44.5156 50.2677 43.9822 49.9822 43.5633 49.5634L41 47L47 41ZM46.64 36.14L31.73 51.05C31.4415 51.3382 31.0503 51.5001 30.6425 51.5001C30.2347 51.5001 29.8436 51.3382 29.555 51.05L24.95 46.445C24.6619 46.1565 24.5 45.7653 24.5 45.3575C24.5 44.9497 24.6619 44.5586 24.95 44.27L44.27 24.95C44.5586 24.6619 44.9497 24.5 45.3575 24.5C45.7653 24.5 46.1565 24.6619 46.445 24.95L51.05 29.555C51.3382 29.8436 51.5001 30.2347 51.5001 30.6425C51.5001 31.0503 51.3382 31.4415 51.05 31.73L46.64 36.14Z" stroke="white" stroke-width="1.5" stroke-linecap="round" stroke-linejoin="round"/>
<path d="M42.6816 29.954L40.9746 28.2455" stroke="white" stroke-width="1.5" stroke-linecap="round" stroke-linejoin="round"/>
<path d="M39.1895 34.946L36.731 32.489" stroke="white" stroke-width="1.5" stroke-linecap="round" stroke-linejoin="round"/>
<path d="M34.196 38.4395L32.489 36.731" stroke="white" stroke-width="1.5" stroke-linecap="round" stroke-linejoin="round"/>
<path d="M30.7041 43.4315L28.2456 40.9745" stroke="white" stroke-width="1.5" stroke-linecap="round" stroke-linejoin="round"/>
</svg>
